<?xml version="1.0" standalone="no"?>
<!DOCTYPE svg PUBLIC "-//W3C//DTD SVG 20010904//EN"
 "http://www.w3.org/TR/2001/REC-SVG-20010904/DTD/svg10.dtd">
<svg version="1.0" xmlns="http://www.w3.org/2000/svg"
 width="1024.000000pt" height="1024.000000pt" viewBox="0 0 1024.000000 1024.000000"
 preserveAspectRatio="xMidYMid meet">
<metadata>
Created by potrace 1.13, written by Peter Selinger 2001-2015
</metadata>
<g transform="translate(0.000000,1024.000000) scale(0.100000,-0.100000)"
fill="#000000" stroke="none">
<path d="M4915 8939 c-44 -5 -196 -15 -337 -23 l-257 -15 -118 -40 c-65 -22
-161 -47 -213 -56 -56 -9 -124 -29 -170 -49 -41 -19 -111 -41 -155 -50 -52
-11 -100 -28 -135 -50 -30 -18 -85 -43 -122 -55 -37 -12 -83 -35 -102 -50 -19
-15 -63 -38 -98 -50 -35 -13 -80 -37 -102 -53 -21 -17 -61 -39 -90 -50 -28
-11 -68 -33 -89 -49 -20 -17 -61 -41 -90 -53 -28 -13 -61 -34 -72 -46 -11 -12
-45 -35 -76 -50 -30 -16 -75 -45 -99 -65 -24 -20 -61 -45 -82 -56 -21 -11 -44
-29 -51 -40 -6 -11 -28 -30 -47 -41 -52 -32 -222 -196 -380 -368 -47 -51 -104
-112 -128 -136 -23 -24 -50 -57 -60 -72 -9 -16 -32 -44 -51 -63 -42 -43 -91
-107 -139 -183 -20 -32 -51 -75 -68 -95 -17 -20 -39 -52 -49 -71 -10 -19 -31
-50 -47 -68 -16 -19 -40 -59 -54 -90 -14 -32 -39 -74 -55 -95 -17 -21 -40 -64
-51 -97 -11 -33 -33 -76 -49 -96 -16 -21 -36 -62 -44 -93 -8 -31 -33 -90 -54
-131 -21 -41 -46 -109 -56 -150 -10 -41 -33 -105 -51 -141 -20 -41 -40 -104
-52 -170 -11 -57 -34 -142 -51 -188 -24 -64 -36 -122 -51 -251 -11 -91 -29
-222 -41 -291 -30 -171 -38 -603 -15 -759 9 -58 25 -172 36 -255 38 -282 49
-344 74 -402 13 -32 35 -113 49 -181 16 -77 35 -140 52 -167 14 -24 36 -86 50
-137 13 -53 39 -118 58 -150 18 -30 39 -81 46 -112 7 -31 27 -77 45 -103 18
-27 43 -77 56 -113 12 -36 35 -82 51 -102 16 -20 38 -60 49 -90 17 -47 65
-121 119 -185 27 -31 64 -29 105 7 18 17 60 42 92 56 33 14 70 36 84 50 14 13
55 38 90 55 36 17 78 42 94 56 17 14 54 36 83 48 29 13 70 38 91 54 20 17 65
53 98 81 34 27 81 58 105 68 24 11 58 31 75 45 18 15 60 40 95 55 35 16 78 40
94 54 17 14 45 33 63 42 45 23 58 55 43 106 -6 22 -25 56 -42 74 -16 19 -40
59 -54 89 -28 64 -56 87 -105 87 -44 0 -176 -54 -210 -86 -14 -12 -57 -37 -95
-54 -39 -18 -81 -42 -95 -55 -46 -43 -84 -37 -111 18 -12 23 -36 67 -55 97
-18 30 -40 87 -49 125 -8 39 -31 102 -50 140 -22 45 -41 108 -54 177 -11 59
-34 150 -50 202 -36 113 -54 250 -50 376 6 136 -9 130 306 130 l254 0 24 25
c24 24 25 28 25 183 0 226 29 206 -310 212 l-272 5 -20 25 c-18 22 -19 34 -13
125 12 192 27 290 60 395 19 58 41 145 49 194 9 53 30 120 50 165 20 42 43
105 51 141 9 36 27 83 40 105 33 56 89 108 117 107 33 0 138 -49 168 -78 14
-13 55 -35 90 -50 36 -14 77 -37 91 -50 32 -30 81 -45 122 -37 45 8 57 20 89
90 15 34 42 78 60 99 26 29 33 46 36 93 3 49 1 59 -20 77 -12 12 -43 29 -67
38 -25 10 -61 30 -81 46 -20 16 -62 40 -94 54 -32 14 -74 39 -92 56 -19 16
-48 37 -64 45 -45 23 -56 52 -32 84 11 15 29 45 40 67 11 22 28 47 37 54 9 8
41 46 70 85 84 111 225 249 480 469 28 23 69 55 93 70 24 15 45 33 48 41 8 20
102 65 135 65 25 0 79 -47 79 -69 0 -5 14 -26 31 -47 17 -22 46 -70 64 -109
17 -38 40 -76 49 -84 10 -8 29 -37 42 -63 14 -27 35 -53 48 -59 34 -16 126 12
178 54 24 19 67 45 96 57 79 34 87 75 30 166 -13 21 -32 58 -41 81 -9 23 -32
62 -51 87 -19 25 -40 62 -46 83 -7 21 -23 57 -36 80 -40 69 -30 90 56 123 19
7 56 26 83 43 26 16 89 40 142 53 51 12 113 33 136 44 73 38 116 49 244 65 69
8 180 29 247 46 70 17 165 33 219 36 136 8 129 25 129 -300 l0 -258 25 -24
c24 -24 27 -25 185 -25 158 0 161 1 185 25 l25 24 0 258 c0 325 -7 308 129
300 54 -3 149 -19 219 -36 67 -17 178 -38 247 -46 128 -16 171 -27 244 -65 23
-11 85 -32 136 -44 53 -13 116 -37 142 -53 27 -17 64 -36 83 -43 86 -33 96
-54 56 -123 -13 -23 -29 -59 -36 -80 -6 -21 -27 -58 -46 -83 -19 -25 -42 -64
-51 -87 -9 -23 -28 -60 -41 -81 -57 -91 -49 -132 30 -166 29 -12 72 -38 96
-57 52 -42 144 -70 178 -54 13 6 34 32 48 59 13 26 32 55 42 63 9 8 32 46 49
84 18 39 47 87 64 109 17 21 31 42 31 47 0 22 54 69 79 69 33 0 127 -45 135
-65 3 -8 24 -26 48 -41 24 -15 66 -47 93 -70 255 -220 396 -358 480 -469 29
-39 61 -77 70 -85 9 -7 28 -34 41 -59 14 -25 33 -58 42 -73 17 -27 17 -28 -26
-71 -31 -31 -42 -51 -42 -73 0 -51 29 -132 60 -168 17 -19 41 -59 55 -90 28
-64 53 -76 116 -57 47 14 62 8 112 -48 46 -51 62 -82 81 -161 9 -36 32 -99 52
-141 20 -45 41 -112 50 -165 8 -49 30 -136 49 -194 33 -105 48 -203 60 -395 6
-91 5 -103 -13 -125 l-20 -25 -272 -5 c-339 -6 -310 14 -310 -212 0 -155 1
-159 25 -183 l24 -25 256 0 256 0 24 -25 c23 -22 25 -31 25 -127 0 -146 -17
-270 -51 -368 -15 -47 -39 -140 -53 -207 -15 -75 -33 -137 -49 -164 -14 -24
-37 -86 -52 -138 -14 -52 -39 -113 -54 -135 -16 -23 -38 -60 -50 -84 -27 -54
-65 -60 -111 -17 -14 13 -56 37 -95 55 -38 17 -81 42 -95 54 -34 32 -166 86
-210 86 -49 0 -77 -23 -105 -87 -14 -30 -38 -70 -54 -89 -17 -18 -36 -52 -42
-74 -15 -51 -2 -83 43 -106 18 -9 47 -28 63 -42 17 -14 59 -38 94 -54 35 -15
77 -40 94 -54 17 -14 54 -36 82 -49 28 -12 67 -36 86 -52 18 -16 59 -46 90
-66 31 -19 60 -40 64 -46 3 -6 30 -23 58 -38 29 -14 65 -37 81 -50 16 -13 52
-36 80 -50 28 -14 66 -39 84 -55 19 -16 57 -39 85 -52 29 -13 72 -39 95 -59
69 -58 87 -52 170 52 18 22 43 65 54 93 12 29 35 70 51 92 16 21 42 71 57 111
15 40 39 88 54 108 15 19 38 70 51 112 13 42 35 93 49 113 14 20 35 73 46 117
12 44 37 112 56 150 20 43 41 110 53 172 11 56 29 123 41 149 30 69 47 146 60
264 6 58 22 175 36 260 48 293 50 685 4 959 -11 69 -29 200 -40 291 -15 129
-27 187 -51 251 -17 46 -40 131 -51 188 -12 66 -32 129 -52 170 -18 36 -41
100 -51 141 -10 41 -35 109 -56 150 -21 41 -46 100 -54 131 -8 31 -28 72 -44
93 -16 20 -38 63 -49 96 -11 33 -34 76 -51 97 -16 21 -41 63 -55 95 -14 31
-38 71 -54 90 -16 18 -37 49 -47 68 -10 19 -32 51 -49 71 -17 20 -48 63 -68
95 -48 76 -97 140 -139 183 -19 19 -42 47 -51 63 -10 15 -37 48 -60 72 -24 24
-81 85 -128 136 -158 172 -328 336 -380 368 -19 11 -41 30 -47 41 -7 11 -30
29 -51 40 -21 11 -58 36 -82 56 -24 20 -69 49 -99 65 -31 15 -65 38 -76 50
-11 12 -44 33 -72 46 -29 12 -70 36 -90 53 -21 16 -61 38 -89 49 -29 11 -69
33 -90 50 -22 16 -67 40 -102 53 -35 12 -79 35 -98 50 -19 15 -65 38 -102 50
-37 12 -92 37 -122 55 -35 22 -83 39 -135 50 -44 9 -114 31 -155 50 -46 20
-114 40 -170 49 -52 9 -148 34 -213 56 l-117 40 -258 15 c-141 8 -301 19 -356
24 -113 12 -276 11 -391 -1z"/>
<path d="M7660 6228 c-19 -5 -47 -20 -62 -34 -16 -13 -48 -28 -71 -34 -87 -23
-135 -41 -168 -66 -19 -14 -71 -36 -116 -50 -44 -13 -98 -36 -120 -51 -21 -14
-77 -38 -124 -53 -48 -15 -102 -39 -120 -53 -19 -13 -72 -36 -119 -50 -47 -15
-101 -38 -120 -52 -19 -14 -70 -37 -113 -50 -43 -13 -99 -37 -125 -53 -26 -17
-79 -39 -117 -51 -39 -11 -91 -34 -117 -50 -26 -16 -80 -40 -120 -51 -40 -12
-98 -37 -128 -56 -30 -18 -77 -38 -105 -45 -27 -7 -67 -21 -89 -31 -21 -11
-46 -17 -55 -15 -71 21 -193 72 -231 97 -26 17 -73 35 -106 42 -79 15 -344 14
-417 -1 -70 -15 -270 -113 -316 -155 -96 -88 -175 -176 -193 -216 -11 -25 -36
-66 -54 -91 -45 -61 -64 -144 -71 -307 -9 -197 18 -365 67 -417 11 -12 33 -48
49 -81 35 -72 191 -234 261 -269 25 -13 52 -31 60 -40 30 -37 54 -43 293 -81
101 -16 113 -16 215 0 238 38 262 44 292 81 8 9 35 27 60 40 70 35 226 197
261 269 16 33 38 69 48 80 11 12 25 35 31 51 21 53 40 197 40 299 0 120 20
173 82 215 22 14 64 47 94 74 30 26 58 47 64 47 5 0 35 23 66 50 31 28 61 50
65 50 5 0 32 19 61 43 29 24 72 54 96 67 23 13 49 34 57 47 9 12 32 31 53 42
20 10 46 29 57 41 11 13 45 39 75 58 30 19 72 50 92 68 20 18 54 42 75 53 21
10 52 33 68 51 17 18 47 41 68 51 21 11 40 26 43 34 3 8 29 29 57 46 28 17 76
51 105 75 30 24 58 44 63 44 5 0 34 23 64 50 30 28 60 50 65 50 6 0 29 17 53
39 23 21 58 46 77 56 19 10 50 34 67 53 18 20 54 47 80 61 58 31 69 65 28 81
-30 11 -29 11 -75 -2z"/>
<path d="M3470 2548 c-65 -18 -62 0 -62 -403 0 -408 -3 -391 71 -417 53 -19
3229 -19 3282 0 74 26 71 9 71 417 0 260 -3 369 -11 379 -6 8 -31 19 -56 25
-58 14 -3243 14 -3295 -1z"/>
</g>
</svg>
