<?xml version="1.0" standalone="no"?>
<!DOCTYPE svg PUBLIC "-//W3C//DTD SVG 20010904//EN"
 "http://www.w3.org/TR/2001/REC-SVG-20010904/DTD/svg10.dtd">
<svg version="1.0" xmlns="http://www.w3.org/2000/svg"
 width="1024.000000pt" height="1024.000000pt" viewBox="0 0 1024.000000 1024.000000"
 preserveAspectRatio="xMidYMid meet">
<metadata>
Created by potrace 1.13, written by Peter Selinger 2001-2015
</metadata>
<g transform="translate(0.000000,1024.000000) scale(0.100000,-0.100000)"
fill="#000000" stroke="none">
<path d="M7725 9569 c-44 -10 -144 -25 -223 -33 -178 -20 -219 -29 -292 -66
-32 -16 -91 -37 -132 -46 -76 -17 -117 -34 -156 -65 -13 -10 -53 -28 -90 -40
-37 -12 -82 -33 -101 -47 -19 -14 -66 -38 -105 -54 -39 -16 -80 -38 -91 -48
-11 -11 -52 -33 -90 -51 -39 -17 -83 -43 -100 -57 -16 -14 -54 -36 -84 -49
-30 -13 -71 -39 -92 -57 -22 -18 -70 -45 -109 -60 l-70 -28 -108 20 c-61 12
-197 26 -317 32 -115 6 -241 15 -280 20 -91 12 -239 12 -340 1 -44 -5 -175
-15 -290 -21 -233 -12 -329 -27 -424 -66 -35 -14 -110 -34 -167 -44 -64 -12
-132 -32 -181 -54 -43 -19 -111 -42 -151 -51 -45 -10 -90 -29 -120 -49 -26
-18 -76 -43 -112 -54 -36 -12 -82 -36 -102 -52 -21 -17 -63 -40 -95 -51 -32
-11 -74 -33 -95 -49 -20 -16 -60 -40 -90 -53 -29 -13 -66 -35 -83 -49 -16 -14
-58 -40 -93 -57 -35 -17 -65 -38 -69 -47 -3 -8 -26 -26 -52 -41 -25 -14 -59
-38 -76 -53 -16 -15 -51 -41 -76 -58 -25 -17 -52 -38 -60 -48 -8 -9 -36 -34
-62 -55 -49 -39 -236 -241 -342 -369 -33 -40 -78 -93 -101 -119 -22 -25 -50
-62 -62 -81 -11 -20 -33 -47 -47 -60 -15 -14 -36 -43 -47 -65 -11 -22 -36 -59
-55 -82 -18 -23 -41 -59 -49 -80 -9 -20 -31 -55 -49 -76 -18 -21 -43 -65 -55
-98 -13 -33 -36 -76 -51 -96 -16 -19 -38 -68 -50 -107 -12 -39 -36 -96 -55
-126 -18 -30 -40 -86 -49 -125 -9 -38 -31 -102 -50 -141 -21 -44 -41 -111 -53
-175 -11 -57 -31 -133 -45 -169 -36 -97 -43 -137 -77 -475 -36 -350 -36 -456
0 -780 22 -204 25 -326 9 -358 -7 -12 -25 -37 -41 -56 -17 -19 -39 -54 -49
-78 -11 -25 -34 -62 -52 -83 -18 -21 -41 -61 -50 -88 -10 -28 -33 -70 -52 -94
-18 -24 -40 -67 -50 -96 -9 -29 -32 -74 -50 -101 -18 -26 -43 -81 -55 -122
-12 -41 -35 -94 -50 -119 -17 -26 -38 -83 -50 -135 -11 -49 -36 -123 -55 -165
-24 -55 -38 -106 -50 -190 -9 -63 -27 -158 -40 -210 -34 -130 -43 -201 -51
-370 -8 -184 6 -318 45 -414 15 -39 36 -103 45 -143 10 -40 32 -94 48 -120 17
-26 44 -75 59 -108 16 -33 44 -79 61 -102 18 -23 45 -61 60 -85 46 -71 90
-128 144 -182 28 -28 55 -58 60 -67 5 -8 37 -34 71 -57 34 -23 65 -47 69 -53
4 -6 39 -26 79 -44 40 -19 76 -38 80 -44 15 -26 92 -53 188 -66 56 -9 158 -29
227 -45 214 -50 276 -50 561 5 69 13 195 31 280 40 144 14 160 18 238 55 46
22 116 47 155 56 39 9 98 31 131 49 33 18 95 42 138 53 42 11 98 34 125 50 26
17 78 40 116 51 39 12 84 32 100 45 75 57 208 94 275 77 20 -5 77 -17 126 -25
50 -8 130 -29 178 -45 106 -36 184 -47 427 -62 102 -5 217 -14 255 -19 91 -12
230 -12 330 -1 44 5 175 15 290 21 233 12 329 27 424 66 35 14 110 34 167 44
64 12 132 32 181 54 43 19 111 42 151 51 45 10 90 29 120 49 26 18 76 43 112
54 36 12 82 36 102 52 21 17 63 40 95 51 32 11 74 33 95 49 20 16 60 40 90 53
29 13 67 35 83 49 17 14 58 40 93 57 35 17 65 38 69 47 3 8 26 26 52 41 25 14
60 38 76 53 17 15 51 41 76 58 25 17 52 38 60 48 8 9 36 34 62 55 49 39 236
241 342 369 33 40 78 93 101 119 22 25 50 62 62 81 11 20 33 47 47 60 15 14
36 43 47 65 11 22 36 59 55 82 18 23 41 59 49 80 9 20 31 55 49 76 18 21 43
65 55 98 13 33 36 76 51 96 16 19 38 68 50 107 12 39 36 96 55 126 18 30 40
87 49 125 9 39 31 102 50 141 21 44 41 111 53 175 11 57 31 133 45 169 36 97
43 137 77 475 42 409 39 533 -30 1120 -6 49 -26 134 -45 190 -86 257 -83 427
10 536 14 17 32 56 41 87 9 31 31 83 51 115 19 31 43 90 54 130 11 39 34 96
50 125 16 29 39 94 51 145 11 50 35 128 53 172 23 56 39 122 54 220 12 77 32
184 46 238 36 145 48 279 43 461 -4 119 -10 173 -22 206 -30 76 -65 183 -76
227 -6 22 -26 64 -46 93 -19 28 -42 70 -50 93 -8 23 -28 55 -43 72 -16 16 -41
53 -57 80 -63 113 -212 259 -317 311 -29 14 -65 39 -82 54 -16 16 -55 38 -86
50 -31 11 -76 35 -100 52 -53 38 -72 43 -233 63 -71 8 -168 24 -217 35 -106
24 -148 24 -254 -1z m202 -1251 c88 -41 103 -67 103 -178 0 -105 -33 -313 -55
-346 -9 -14 -23 -28 -30 -31 -15 -5 -85 33 -85 46 0 7 -44 47 -256 233 -29 26
-66 54 -83 62 -35 19 -67 91 -57 131 8 32 45 49 141 66 37 6 100 22 139 35 80
26 92 25 183 -18z m-2437 -239 c52 -5 151 -23 220 -39 69 -17 174 -39 234 -51
70 -13 131 -32 175 -53 36 -19 98 -41 138 -51 41 -9 94 -31 124 -51 29 -18 74
-41 100 -49 26 -9 65 -30 86 -47 21 -16 67 -45 103 -63 36 -18 74 -43 85 -55
11 -12 41 -33 66 -45 25 -13 52 -31 60 -41 8 -9 39 -33 69 -52 30 -19 74 -52
97 -74 24 -21 47 -38 52 -38 5 0 33 -24 63 -52 30 -29 66 -62 79 -74 13 -12
33 -32 45 -45 12 -13 32 -35 46 -49 103 -100 216 -258 225 -313 4 -28 0 -40
-25 -68 -17 -19 -41 -60 -55 -90 -13 -30 -38 -71 -56 -91 -17 -20 -38 -53 -47
-74 -9 -22 -29 -54 -45 -72 -16 -18 -41 -56 -55 -85 -15 -29 -40 -67 -55 -85
-16 -18 -40 -54 -53 -80 -13 -26 -36 -58 -51 -72 -15 -14 -38 -46 -51 -72 -13
-25 -41 -67 -64 -93 -22 -25 -40 -51 -40 -56 0 -5 -18 -29 -39 -52 -22 -24
-55 -64 -73 -89 -71 -99 -105 -143 -145 -190 -24 -26 -49 -61 -58 -77 -8 -16
-27 -39 -42 -51 -15 -12 -39 -38 -53 -58 -14 -20 -42 -55 -63 -77 -20 -22 -57
-62 -82 -90 -420 -470 -767 -831 -953 -992 -99 -85 -270 -236 -322 -283 -120
-109 -354 -300 -433 -353 -23 -15 -57 -42 -77 -61 -19 -19 -48 -41 -65 -49
-16 -8 -42 -29 -57 -46 -15 -16 -42 -38 -60 -47 -18 -9 -50 -32 -70 -50 -21
-19 -63 -48 -94 -65 -31 -18 -58 -38 -61 -46 -3 -7 -26 -25 -52 -40 -25 -14
-62 -41 -81 -59 -19 -17 -57 -43 -85 -57 -27 -14 -59 -35 -70 -47 -11 -12 -41
-33 -67 -46 -26 -13 -61 -38 -79 -54 -17 -17 -54 -41 -82 -54 -29 -13 -67 -35
-84 -50 -18 -15 -59 -41 -92 -56 -33 -16 -62 -34 -66 -39 -11 -19 -74 -12
-124 13 -26 14 -72 47 -102 73 -30 27 -70 60 -89 75 -39 29 -239 227 -313 310
-60 67 -110 131 -145 186 -15 24 -45 65 -67 92 -22 27 -47 66 -54 87 -8 21
-31 63 -51 93 -21 30 -46 80 -55 110 -10 30 -33 80 -51 110 -18 30 -40 84 -49
119 -9 35 -32 94 -51 130 -23 45 -41 100 -54 171 -11 58 -33 143 -49 190 -41
120 -51 221 -58 580 -8 457 7 626 75 810 11 30 29 95 41 144 11 49 31 105 45
125 13 20 34 66 45 104 23 77 35 101 67 139 12 15 30 50 39 78 9 28 32 71 51
96 19 25 45 69 58 97 13 29 33 61 45 71 12 11 36 46 53 79 17 32 39 62 49 67
10 6 31 34 48 63 17 29 40 62 52 73 12 10 35 39 52 64 89 131 300 339 423 419
34 21 65 44 69 50 3 6 30 23 58 37 29 14 66 39 82 54 17 16 55 38 85 50 30 12
72 35 93 52 22 17 69 41 105 54 36 14 75 33 87 43 30 28 72 46 148 65 38 9 92
30 120 46 35 19 88 35 163 49 61 12 143 32 183 46 87 31 181 45 371 55 167 10
502 4 640 -11z m2586 -2890 c17 -18 19 -41 22 -176 7 -286 -16 -481 -76 -643
-11 -30 -29 -95 -41 -144 -11 -49 -31 -105 -45 -125 -13 -20 -34 -66 -45 -104
-23 -77 -35 -101 -67 -139 -12 -15 -30 -50 -39 -78 -9 -28 -32 -71 -51 -96
-19 -25 -45 -69 -58 -97 -13 -29 -33 -61 -45 -71 -12 -11 -36 -46 -53 -79 -17
-32 -39 -62 -49 -67 -10 -6 -31 -34 -48 -63 -17 -29 -40 -62 -52 -73 -12 -10
-35 -39 -52 -64 -90 -132 -299 -338 -427 -420 -31 -21 -61 -43 -65 -49 -3 -6
-30 -23 -58 -37 -29 -14 -65 -39 -82 -54 -16 -16 -55 -38 -85 -50 -30 -12 -72
-35 -93 -52 -22 -17 -69 -41 -105 -54 -36 -14 -75 -33 -87 -43 -30 -28 -72
-46 -148 -65 -38 -9 -92 -30 -120 -46 -35 -19 -88 -35 -163 -49 -61 -12 -143
-32 -182 -46 -40 -14 -104 -30 -144 -35 -107 -16 -445 -32 -501 -24 -90 12
-103 57 -29 107 72 47 170 120 230 169 127 104 179 149 212 181 19 18 56 48
83 66 26 17 47 35 47 40 0 4 21 23 48 42 26 18 72 55 102 82 30 26 75 65 100
86 49 43 198 179 246 224 16 15 77 74 136 130 58 56 117 111 130 122 13 12 33
32 44 45 12 14 37 39 55 56 41 38 82 79 118 118 14 15 39 40 55 55 16 14 38
37 50 50 12 13 66 70 121 126 55 56 145 151 200 210 55 59 120 129 145 155 25
27 74 83 110 125 36 43 85 101 110 131 25 29 70 83 100 119 30 37 73 85 94
108 21 23 49 59 62 79 13 20 33 42 44 48 10 6 31 30 45 54 14 24 35 52 46 62
20 17 49 58 162 220 41 59 63 67 93 33z m-6006 -2411 c30 -34 66 -78 80 -98
40 -58 117 -145 228 -257 56 -57 102 -107 102 -113 0 -5 -10 -20 -22 -35 -20
-22 -42 -29 -163 -50 -172 -31 -194 -27 -260 47 -26 28 -52 63 -60 77 -48 94
-54 400 -10 468 24 36 46 28 105 -39z"/>
</g>
</svg>
