<?xml version="1.0" standalone="no"?>
<!DOCTYPE svg PUBLIC "-//W3C//DTD SVG 20010904//EN"
 "http://www.w3.org/TR/2001/REC-SVG-20010904/DTD/svg10.dtd">
<svg version="1.0" xmlns="http://www.w3.org/2000/svg"
 width="1024.000000pt" height="1024.000000pt" viewBox="0 0 1024.000000 1024.000000"
 preserveAspectRatio="xMidYMid meet">
<metadata>
Created by potrace 1.13, written by Peter Selinger 2001-2015
</metadata>
<g transform="translate(0.000000,1024.000000) scale(0.100000,-0.100000)"
fill="#000000" stroke="none">
<path d="M4945 9374 c-119 -18 -362 -41 -505 -49 -153 -8 -221 -21 -303 -56
-37 -15 -118 -38 -180 -49 -70 -13 -140 -34 -187 -55 -41 -19 -106 -41 -143
-50 -69 -15 -119 -36 -148 -61 -9 -8 -49 -25 -90 -39 -40 -14 -90 -38 -109
-54 -19 -15 -64 -39 -100 -52 -35 -13 -78 -35 -95 -50 -17 -16 -56 -37 -86
-49 -30 -12 -71 -35 -92 -51 -21 -17 -58 -39 -83 -50 -24 -11 -59 -33 -77 -48
-18 -16 -56 -40 -85 -55 -29 -15 -69 -42 -90 -60 -20 -18 -51 -41 -69 -49 -17
-9 -40 -27 -50 -40 -10 -12 -34 -33 -53 -47 -79 -55 -202 -176 -380 -375 -104
-115 -205 -228 -224 -250 -54 -59 -102 -123 -144 -189 -20 -32 -51 -75 -68
-95 -17 -20 -39 -52 -49 -71 -10 -19 -31 -50 -46 -68 -16 -17 -44 -65 -62
-105 -19 -39 -43 -80 -55 -91 -12 -10 -31 -47 -42 -82 -12 -34 -35 -80 -51
-100 -16 -20 -36 -62 -44 -93 -8 -31 -33 -90 -54 -131 -21 -41 -46 -109 -56
-150 -10 -41 -33 -105 -51 -141 -20 -41 -40 -104 -52 -170 -11 -57 -32 -135
-47 -174 -34 -92 -41 -124 -59 -295 -9 -80 -25 -197 -36 -260 -13 -71 -25
-206 -32 -354 -12 -268 -2 -459 32 -633 11 -56 27 -160 35 -230 19 -155 31
-211 62 -282 13 -30 33 -97 43 -150 12 -59 33 -122 54 -162 19 -36 44 -101 55
-144 12 -42 34 -96 50 -119 15 -22 38 -72 50 -111 13 -38 36 -86 52 -106 16
-21 39 -64 50 -96 11 -32 33 -74 49 -95 16 -20 41 -62 55 -95 14 -32 37 -69
49 -83 13 -14 37 -52 54 -85 16 -33 40 -69 52 -80 12 -11 33 -42 46 -68 14
-26 41 -65 60 -87 20 -22 44 -62 55 -90 39 -102 61 -72 -355 -489 -249 -251
-375 -385 -380 -404 -4 -16 -1 -38 8 -55 20 -37 516 -528 542 -536 12 -4 34
-2 50 4 16 6 196 177 399 381 303 301 376 369 398 369 40 0 128 -43 162 -80
17 -17 48 -41 70 -52 22 -11 56 -34 74 -51 19 -16 55 -39 80 -50 26 -11 63
-35 84 -52 21 -18 64 -42 96 -54 32 -12 75 -34 95 -50 21 -17 66 -39 100 -51
35 -11 81 -34 102 -50 22 -17 71 -39 109 -51 39 -12 95 -36 125 -54 30 -19 84
-41 120 -50 36 -9 97 -32 135 -50 49 -24 106 -41 186 -55 65 -11 152 -33 195
-49 99 -36 173 -47 394 -61 96 -6 254 -22 350 -36 211 -29 250 -30 433 -4 157
21 315 36 482 45 148 8 217 21 298 56 37 15 118 38 180 49 70 13 140 34 187
55 41 19 106 41 143 50 69 15 119 36 148 61 9 8 49 25 90 39 40 14 90 38 109
54 19 15 64 39 100 52 35 13 78 35 95 50 17 16 56 37 86 49 30 12 71 35 92 51
21 17 58 39 83 50 24 11 59 33 77 48 18 16 56 40 85 55 29 15 69 42 90 60 20
18 51 41 69 49 17 9 40 27 50 40 10 12 34 33 53 47 79 55 202 176 380 375 104
116 205 228 224 250 54 59 102 123 144 189 20 32 51 75 68 95 17 20 39 52 49
71 10 19 31 50 46 68 16 17 44 65 62 105 19 39 43 80 55 91 12 10 31 47 42 82
12 34 35 80 51 100 16 20 36 62 44 93 8 31 33 90 54 131 21 41 46 109 56 150
10 41 33 105 51 141 20 41 40 104 52 170 11 57 32 136 47 174 34 92 41 124 59
295 9 80 25 197 36 260 13 71 25 206 32 354 12 268 2 459 -32 633 -11 56 -27
160 -35 230 -19 155 -31 211 -62 282 -13 30 -33 97 -43 150 -12 59 -33 122
-54 162 -19 36 -44 101 -55 144 -12 42 -34 96 -50 119 -15 22 -38 72 -50 111
-13 38 -36 86 -52 106 -16 21 -39 64 -50 96 -11 32 -33 74 -49 95 -16 20 -41
62 -55 95 -14 32 -37 69 -49 83 -13 14 -37 52 -54 85 -16 33 -40 69 -52 80
-12 11 -33 42 -46 68 -14 26 -41 65 -60 87 -20 22 -44 62 -55 90 -39 102 -61
72 355 489 249 251 375 385 380 404 4 17 0 39 -10 60 -21 42 -479 500 -521
521 -21 10 -43 14 -60 10 -19 -5 -153 -131 -404 -380 -305 -305 -380 -374
-402 -374 -40 0 -128 43 -162 80 -16 17 -48 41 -70 52 -22 11 -56 34 -74 51
-19 16 -55 39 -80 50 -26 11 -63 35 -84 52 -21 18 -64 42 -96 54 -32 12 -75
34 -95 50 -21 17 -66 39 -100 51 -35 11 -81 34 -102 50 -22 17 -70 39 -109 51
-38 12 -95 36 -125 54 -30 19 -84 41 -120 50 -36 9 -96 32 -135 50 -49 24
-106 41 -186 55 -65 11 -152 33 -195 49 -99 36 -173 47 -394 61 -96 6 -254 22
-350 36 -194 27 -272 28 -405 8z m455 -864 c272 -13 334 -22 462 -64 57 -18
140 -39 186 -46 94 -13 151 -31 191 -59 15 -11 64 -30 107 -42 43 -12 104 -37
135 -56 31 -18 83 -42 115 -52 33 -10 79 -32 103 -49 24 -17 69 -41 100 -52
31 -12 67 -32 81 -45 14 -13 55 -37 93 -54 62 -28 67 -33 67 -61 0 -41 -16
-46 -180 -58 -98 -7 -157 -17 -215 -36 -44 -15 -138 -36 -210 -47 -75 -11
-155 -31 -190 -45 -69 -30 -118 -47 -195 -70 -30 -8 -72 -29 -93 -46 -21 -16
-65 -40 -97 -53 -32 -13 -76 -36 -97 -53 -21 -16 -60 -38 -86 -47 -27 -10 -65
-31 -85 -48 -20 -16 -62 -40 -92 -54 -30 -13 -68 -37 -85 -52 -16 -16 -53 -41
-82 -55 -29 -14 -67 -39 -85 -55 -51 -43 -72 -51 -140 -51 -68 0 -129 22 -179
65 -17 13 -60 33 -97 44 -37 11 -91 36 -120 54 -30 20 -76 39 -110 45 -153 30
-264 54 -330 71 -224 61 -576 50 -752 -24 -33 -14 -64 -25 -69 -25 -26 0 -123
-44 -158 -71 -21 -17 -51 -36 -68 -43 -43 -18 -232 -211 -260 -265 -13 -25
-35 -57 -49 -70 -14 -13 -33 -47 -42 -75 -9 -28 -34 -87 -55 -131 -53 -107
-63 -199 -56 -495 6 -249 16 -324 53 -412 13 -32 34 -100 45 -151 13 -57 33
-113 54 -147 18 -30 42 -86 55 -123 12 -37 33 -81 46 -96 42 -51 64 -111 64
-182 0 -55 -5 -72 -29 -111 -16 -25 -34 -49 -40 -53 -6 -3 -23 -30 -37 -58
-14 -29 -39 -65 -55 -82 -15 -16 -38 -52 -50 -80 -12 -27 -35 -67 -51 -87 -15
-20 -40 -63 -54 -95 -14 -32 -34 -67 -45 -79 -11 -11 -34 -56 -53 -100 -18
-43 -45 -97 -59 -118 -24 -34 -57 -122 -57 -149 0 -5 -16 -42 -36 -81 -24 -47
-44 -108 -59 -181 -12 -60 -34 -150 -49 -200 -20 -65 -30 -129 -37 -233 -11
-164 -26 -215 -61 -210 -17 2 -32 22 -60 77 -21 41 -46 83 -57 95 -11 12 -31
47 -45 79 -14 32 -38 77 -55 100 -16 23 -36 65 -45 93 -9 27 -32 74 -50 103
-19 28 -41 81 -50 117 -9 36 -32 96 -51 132 -22 41 -42 104 -54 162 -11 52
-33 131 -49 175 -36 99 -38 110 -57 320 -26 283 -30 640 -11 860 23 268 34
329 71 425 18 47 40 121 49 164 9 44 24 93 33 110 41 78 61 125 72 170 7 27
25 68 42 92 16 24 43 76 59 115 16 39 38 81 49 93 11 11 33 50 49 86 16 36 39
74 52 85 12 11 35 46 51 77 16 31 42 72 57 90 16 18 41 55 56 81 15 27 34 51
42 54 7 3 23 21 36 41 12 21 38 55 57 77 20 23 51 61 68 85 110 152 295 337
418 420 28 18 61 44 75 58 14 13 45 34 70 47 25 13 54 33 65 45 11 13 44 34
73 47 30 13 71 37 91 54 21 16 62 39 92 50 30 11 71 34 92 50 20 17 63 39 95
50 31 11 80 35 107 53 32 22 80 42 131 54 44 11 107 34 140 50 37 20 100 38
172 52 62 11 133 30 158 40 92 40 168 52 399 65 302 16 397 17 655 5z m1556
-1501 c41 -25 74 -77 74 -116 0 -16 -9 -56 -20 -89 -11 -32 -30 -106 -41 -164
-15 -75 -31 -124 -56 -169 -20 -35 -44 -91 -53 -123 -10 -32 -32 -75 -48 -96
-17 -21 -40 -63 -52 -93 -12 -30 -34 -70 -49 -89 -16 -20 -38 -54 -50 -78 -25
-48 -58 -62 -94 -39 -13 8 -47 42 -77 76 -71 80 -381 390 -461 461 -34 30 -68
64 -76 77 -23 36 -9 69 39 94 24 12 58 34 78 50 19 15 59 37 89 49 30 12 72
35 93 52 21 16 69 39 106 50 37 11 94 35 127 54 43 24 88 38 155 49 52 9 124
27 160 40 82 29 114 30 156 4z m1036 -58 c21 -41 46 -83 57 -95 11 -12 31 -47
45 -79 14 -32 38 -77 55 -100 16 -23 36 -65 45 -93 9 -27 32 -74 50 -103 19
-28 41 -81 50 -117 9 -36 32 -96 51 -132 22 -41 42 -104 54 -162 11 -52 33
-131 49 -175 36 -99 38 -110 57 -320 26 -283 30 -640 11 -860 -23 -268 -34
-329 -71 -425 -18 -47 -40 -121 -49 -164 -9 -44 -24 -93 -33 -110 -41 -78 -61
-125 -72 -170 -7 -27 -25 -68 -42 -92 -16 -24 -43 -76 -59 -115 -16 -39 -38
-81 -49 -93 -11 -11 -33 -50 -49 -86 -16 -36 -39 -74 -52 -85 -12 -11 -35 -46
-51 -77 -16 -31 -42 -72 -57 -90 -16 -18 -41 -55 -56 -81 -15 -27 -34 -51 -42
-54 -7 -3 -23 -21 -36 -41 -12 -21 -38 -55 -57 -77 -20 -23 -51 -61 -68 -85
-110 -152 -295 -337 -418 -420 -27 -18 -61 -44 -75 -58 -14 -13 -45 -34 -70
-47 -25 -13 -54 -33 -65 -45 -11 -13 -44 -34 -73 -47 -30 -13 -71 -37 -91 -54
-21 -16 -62 -39 -92 -50 -30 -11 -71 -34 -92 -50 -20 -17 -63 -39 -95 -50 -31
-11 -79 -35 -107 -53 -32 -22 -80 -42 -131 -54 -44 -11 -107 -34 -140 -50 -37
-20 -100 -38 -172 -52 -62 -11 -133 -30 -157 -40 -95 -41 -159 -50 -450 -66
-246 -14 -332 -15 -565 -5 -321 14 -367 20 -503 65 -56 19 -139 39 -185 46
-94 13 -151 31 -191 59 -15 11 -64 30 -107 42 -43 12 -104 37 -135 56 -31 18
-83 42 -115 52 -33 10 -79 32 -103 49 -24 17 -69 41 -100 52 -31 12 -67 32
-81 45 -14 13 -55 37 -92 54 -63 28 -68 33 -68 61 0 41 16 46 180 58 98 7 157
17 215 36 44 15 138 36 210 47 75 11 155 31 190 45 69 30 118 47 195 70 30 8
72 29 93 46 21 16 65 40 97 53 32 13 74 35 92 49 19 14 61 37 93 51 32 15 72
38 89 52 16 14 55 36 85 50 31 13 70 37 86 52 17 16 53 41 82 55 29 14 67 39
85 55 51 43 72 51 140 51 68 0 129 -22 179 -65 17 -13 60 -33 97 -44 37 -11
91 -36 120 -54 30 -20 76 -39 110 -45 153 -30 264 -54 330 -71 224 -61 576
-50 752 24 33 14 64 25 69 25 26 0 123 44 158 71 21 17 52 36 68 43 43 18 232
211 260 265 13 25 35 57 49 70 14 13 33 47 42 75 9 28 34 87 55 131 53 107 63
199 56 495 -6 249 -16 324 -53 412 -13 32 -34 100 -45 151 -13 57 -33 113 -54
147 -18 30 -42 86 -55 123 -12 37 -33 81 -46 96 -42 51 -64 111 -64 182 0 55
5 72 29 111 16 25 34 49 40 53 6 3 23 30 37 58 14 29 39 66 55 82 15 17 38 53
50 80 12 28 35 67 51 87 15 20 40 63 54 95 14 32 34 67 45 79 11 11 34 56 53
100 18 43 45 97 59 118 24 34 57 122 57 149 0 5 16 42 36 81 24 47 44 108 59
181 12 60 34 151 49 200 20 65 30 129 37 233 11 164 26 215 61 210 17 -2 32
-22 60 -77z m-3936 -345 c43 -13 112 -29 152 -36 91 -15 132 -44 117 -83 -6
-13 -72 -83 -148 -155 -76 -73 -197 -193 -269 -269 -72 -76 -139 -142 -149
-147 -37 -18 -64 8 -103 99 -43 99 -56 188 -45 294 8 74 58 208 88 235 33 30
183 86 232 86 25 0 81 -11 125 -24z m1180 -571 c19 -8 58 -34 85 -57 116 -99
288 -256 349 -318 102 -105 251 -267 268 -292 8 -13 30 -39 48 -58 43 -46 67
-104 60 -145 -4 -18 -28 -57 -54 -88 -26 -30 -74 -87 -107 -127 -141 -171
-424 -454 -595 -595 -40 -33 -97 -81 -127 -107 -31 -26 -70 -50 -88 -54 -42
-8 -94 15 -156 68 -116 99 -288 256 -349 318 -102 105 -251 267 -268 292 -8
13 -30 39 -48 58 -43 46 -67 104 -60 145 4 18 28 57 54 88 26 30 74 87 107
127 139 168 406 435 586 587 31 27 82 70 113 96 92 79 119 88 182 62z m1293
-1715 c10 -5 35 -48 55 -96 43 -98 56 -187 45 -293 -8 -73 -58 -208 -87 -234
-24 -22 -208 -87 -246 -87 -18 0 -68 11 -112 24 -43 13 -112 29 -151 36 -78
13 -123 39 -123 71 0 12 50 67 127 142 71 67 144 138 163 157 19 19 90 92 157
163 68 70 130 127 138 127 9 0 24 -4 34 -10z m-2794 -95 c115 -122 409 -416
476 -475 34 -30 68 -64 76 -77 23 -36 9 -69 -39 -94 -24 -12 -58 -34 -78 -50
-19 -15 -59 -37 -89 -49 -30 -12 -72 -35 -93 -52 -21 -16 -69 -39 -106 -50
-37 -11 -94 -35 -127 -54 -43 -24 -88 -38 -155 -49 -52 -9 -127 -27 -166 -41
-39 -13 -81 -24 -94 -24 -56 0 -130 77 -130 137 0 16 9 56 20 89 11 32 30 106
41 164 15 75 31 124 56 169 20 35 44 91 53 123 10 32 32 75 48 96 17 21 40 63
52 93 12 30 34 70 49 89 16 20 38 54 49 77 39 76 69 72 157 -22z"/>
</g>
</svg>
