<?xml version="1.0" standalone="no"?>
<!DOCTYPE svg PUBLIC "-//W3C//DTD SVG 20010904//EN"
 "http://www.w3.org/TR/2001/REC-SVG-20010904/DTD/svg10.dtd">
<svg version="1.0" xmlns="http://www.w3.org/2000/svg"
 width="1024.000000pt" height="1024.000000pt" viewBox="0 0 1024.000000 1024.000000"
 preserveAspectRatio="xMidYMid meet">
<metadata>
Created by potrace 1.13, written by Peter Selinger 2001-2015
</metadata>
<g transform="translate(0.000000,1024.000000) scale(0.100000,-0.100000)"
fill="#000000" stroke="none">
<path d="M4735 9374 c-121 -20 -240 -33 -455 -48 -195 -14 -212 -18 -370 -75
-30 -10 -95 -26 -143 -34 -54 -10 -116 -29 -160 -50 -40 -19 -103 -42 -142
-51 -38 -9 -96 -33 -127 -52 -32 -19 -82 -43 -113 -54 -30 -10 -75 -33 -98
-50 -23 -17 -67 -40 -97 -51 -30 -11 -70 -33 -90 -49 -20 -16 -63 -40 -95 -55
-33 -14 -71 -37 -85 -49 -14 -13 -52 -37 -86 -54 -33 -17 -66 -38 -74 -47 -7
-9 -41 -32 -74 -52 -34 -19 -65 -41 -69 -49 -5 -8 -27 -26 -50 -41 -100 -63
-259 -212 -438 -413 -77 -85 -154 -171 -172 -190 -18 -19 -47 -56 -65 -81 -17
-26 -38 -49 -46 -52 -8 -3 -24 -24 -36 -47 -11 -22 -36 -58 -54 -78 -18 -20
-43 -56 -55 -80 -12 -24 -37 -60 -55 -80 -18 -20 -42 -57 -53 -83 -11 -25 -36
-66 -56 -92 -19 -25 -43 -68 -52 -96 -9 -27 -29 -66 -46 -87 -16 -20 -38 -67
-49 -104 -11 -38 -35 -93 -54 -124 -19 -31 -41 -88 -50 -126 -8 -38 -31 -100
-49 -137 -22 -43 -42 -106 -56 -173 -11 -58 -32 -133 -46 -167 -31 -78 -41
-123 -55 -253 -6 -58 -23 -175 -38 -260 -25 -146 -27 -173 -27 -455 0 -280 2
-311 27 -460 15 -88 32 -205 38 -260 13 -123 26 -182 56 -256 13 -32 35 -110
48 -173 15 -70 35 -133 51 -160 14 -24 37 -86 51 -137 13 -51 38 -112 53 -136
16 -24 39 -74 50 -112 11 -37 34 -86 51 -109 17 -23 40 -67 51 -96 11 -30 34
-71 50 -93 17 -21 43 -66 59 -99 15 -34 34 -66 43 -70 8 -5 29 -34 47 -64 17
-30 42 -66 55 -80 12 -14 35 -45 50 -70 16 -25 47 -67 69 -93 23 -27 65 -76
93 -110 137 -162 467 -507 485 -507 4 0 32 -22 62 -50 31 -27 69 -56 85 -65
17 -8 35 -23 40 -33 6 -10 38 -33 71 -51 34 -18 76 -46 94 -62 18 -16 53 -37
77 -47 24 -11 58 -31 76 -46 17 -14 57 -38 88 -51 31 -14 73 -39 93 -55 21
-16 64 -39 97 -51 33 -12 77 -35 97 -51 20 -16 69 -40 109 -53 40 -14 80 -32
89 -40 25 -22 99 -52 165 -65 33 -7 92 -27 130 -46 44 -21 105 -39 163 -49 96
-17 127 -25 249 -69 58 -21 101 -28 230 -36 87 -5 230 -16 318 -22 265 -21
384 -17 838 33 55 6 145 23 200 39 56 16 134 34 172 40 39 6 81 18 94 27 20
13 23 21 19 63 -3 26 -15 66 -26 89 -12 23 -31 58 -42 79 -11 20 -28 82 -40
137 -11 55 -31 142 -45 194 -14 51 -25 106 -25 122 0 16 -6 45 -14 64 -26 61
-90 61 -336 1 -197 -48 -429 -62 -732 -47 -223 12 -338 28 -433 61 -33 11
-109 29 -170 40 -73 13 -129 30 -167 50 -31 16 -94 39 -140 50 -53 13 -102 34
-134 55 -27 19 -76 44 -108 55 -31 10 -74 33 -95 49 -21 17 -63 39 -93 51 -30
11 -64 30 -74 41 -11 12 -50 37 -89 56 -38 19 -83 47 -100 62 -16 15 -51 40
-77 55 -27 15 -48 31 -48 35 0 5 -19 21 -43 36 -64 43 -203 174 -282 265 -38
45 -88 103 -111 129 -23 25 -53 65 -68 89 -15 24 -34 46 -42 49 -8 3 -26 26
-41 52 -14 25 -41 62 -59 81 -17 19 -42 55 -54 80 -13 25 -36 60 -52 79 -17
19 -38 54 -49 78 -10 24 -32 60 -49 81 -16 21 -41 65 -54 99 -13 34 -36 78
-51 97 -15 20 -38 70 -50 112 -13 41 -37 97 -54 122 -17 28 -36 80 -46 127
-10 44 -33 119 -51 167 -39 99 -48 153 -69 405 -19 230 -19 529 0 753 21 248
33 315 66 395 16 39 38 110 49 159 12 52 34 113 54 150 19 33 42 87 51 118 9
32 31 79 49 105 18 27 43 75 55 108 12 33 33 71 46 85 12 14 35 50 50 80 15
30 43 75 62 100 19 25 40 59 47 75 7 17 32 52 55 78 23 27 48 61 55 75 8 15
24 36 36 47 12 11 36 40 53 65 17 25 49 67 71 93 57 67 164 190 176 202 6 6
34 33 63 61 29 27 72 64 97 81 25 17 54 41 65 53 11 12 38 31 60 42 22 11 56
35 75 54 19 18 51 40 71 48 20 8 57 31 83 51 26 20 71 45 99 56 29 11 63 31
77 44 29 26 69 47 125 65 22 7 54 23 70 35 45 33 84 51 145 65 30 7 84 28 120
46 42 23 100 41 165 53 55 11 125 29 155 41 106 43 156 51 425 67 229 13 311
14 540 4 311 -14 368 -21 486 -62 47 -16 136 -38 197 -49 86 -14 126 -27 174
-54 35 -19 92 -42 128 -51 36 -9 88 -31 116 -50 28 -18 74 -40 102 -48 60 -18
88 -32 124 -63 15 -12 54 -32 85 -44 32 -12 72 -34 88 -50 17 -15 48 -37 71
-48 22 -11 47 -28 55 -38 8 -9 40 -36 72 -59 157 -115 573 -530 643 -642 10
-15 37 -49 61 -75 24 -26 43 -52 43 -57 0 -5 19 -31 41 -57 23 -27 49 -67 59
-90 10 -23 34 -62 53 -87 19 -26 41 -63 47 -84 7 -21 29 -65 50 -98 22 -34 47
-94 60 -140 12 -44 30 -94 41 -111 11 -18 31 -65 44 -104 16 -48 38 -87 64
-115 22 -24 46 -56 54 -72 9 -16 24 -36 33 -44 10 -8 36 -43 60 -79 23 -36 54
-76 69 -90 15 -14 35 -41 45 -60 10 -19 32 -47 49 -62 16 -15 38 -42 47 -60 9
-18 29 -47 45 -65 15 -18 40 -54 55 -80 15 -26 42 -64 59 -83 18 -19 41 -51
50 -70 10 -19 34 -54 54 -76 20 -23 48 -61 64 -85 24 -39 72 -110 109 -162 19
-27 89 -40 108 -21 26 26 19 367 -13 679 -31 295 -37 327 -77 445 -16 47 -36
125 -44 174 -9 52 -29 117 -47 155 -17 36 -42 106 -54 154 -13 49 -35 106 -49
127 -14 21 -37 76 -52 122 -15 45 -42 105 -60 131 -19 27 -38 66 -44 88 -6 21
-26 59 -46 84 -19 25 -46 72 -60 103 -14 31 -38 71 -53 87 -16 17 -38 49 -50
72 -11 23 -26 45 -32 49 -6 3 -35 44 -65 90 -30 46 -58 84 -64 84 -5 0 -21 20
-35 45 -15 24 -39 55 -53 67 -15 13 -38 39 -52 58 -14 19 -41 51 -60 71 -19
19 -82 86 -140 149 -123 133 -217 224 -265 257 -19 13 -35 28 -35 33 0 6 -24
25 -52 44 -29 18 -62 44 -73 56 -11 12 -36 30 -55 40 -20 10 -62 38 -95 63
-33 24 -70 47 -82 51 -12 4 -43 24 -69 46 -25 21 -71 48 -102 59 -30 12 -69
34 -87 50 -18 16 -64 40 -103 55 -39 15 -76 34 -83 42 -16 20 -51 38 -120 62
-30 10 -74 33 -97 50 -28 19 -69 36 -120 47 -42 10 -107 32 -143 50 -42 22
-103 41 -172 54 -58 11 -149 36 -203 56 -90 34 -109 37 -293 50 -215 16 -338
29 -476 51 -109 17 -223 17 -330 -2z"/>
<path d="M5090 7880 c-159 -13 -238 -26 -323 -55 -40 -13 -110 -31 -157 -40
-92 -16 -131 -29 -170 -55 -14 -10 -63 -29 -110 -44 -47 -15 -102 -41 -122
-57 -20 -16 -61 -38 -91 -49 -31 -12 -72 -35 -94 -52 -21 -17 -58 -39 -82 -49
-24 -11 -59 -33 -77 -49 -18 -16 -55 -41 -81 -56 -26 -15 -69 -46 -94 -68 -26
-23 -57 -50 -70 -61 -13 -12 -33 -32 -45 -46 -12 -14 -30 -32 -40 -40 -10 -8
-31 -30 -45 -49 -15 -20 -42 -52 -60 -72 -40 -42 -111 -137 -156 -210 -18 -28
-41 -56 -51 -64 -11 -7 -29 -35 -42 -61 -12 -26 -35 -65 -51 -85 -16 -21 -43
-68 -59 -104 -17 -37 -41 -80 -55 -96 -13 -16 -34 -61 -46 -101 -11 -40 -34
-93 -50 -119 -21 -31 -37 -80 -53 -155 -13 -59 -35 -142 -49 -183 -32 -93 -47
-209 -47 -363 0 -112 1 -119 25 -142 l24 -25 361 0 c306 0 366 2 391 15 35 19
49 50 49 113 0 26 7 76 15 112 8 36 26 124 41 195 20 99 35 147 64 200 21 39
45 93 54 121 9 29 26 60 38 70 11 11 35 49 53 85 18 36 41 72 51 80 10 8 29
32 43 55 53 83 204 245 274 292 23 16 51 39 61 51 10 11 44 32 75 47 31 14 66
34 77 45 12 11 54 33 93 49 39 16 86 40 104 54 48 37 75 44 199 56 62 6 179
24 259 41 171 34 265 37 387 10 48 -11 152 -29 232 -41 165 -24 201 -33 250
-66 19 -13 57 -31 85 -40 87 -29 106 -64 65 -128 -11 -17 -339 -350 -730 -741
-656 -655 -710 -712 -710 -743 0 -18 7 -46 15 -61 19 -37 449 -467 486 -486
15 -8 43 -15 61 -15 31 0 88 54 743 710 391 391 725 720 742 731 63 40 81 28
145 -99 42 -82 61 -134 73 -195 8 -45 27 -121 41 -169 14 -47 31 -136 38 -197
9 -79 17 -117 30 -129 15 -15 55 -18 364 -24 191 -4 367 -8 391 -10 45 -3 45
-3 54 37 10 46 1 298 -14 394 -5 35 -19 89 -31 120 -11 31 -33 108 -48 172
-16 72 -38 136 -58 171 -17 30 -41 86 -53 123 -11 37 -35 89 -53 115 -17 25
-40 68 -50 96 -10 27 -33 67 -51 89 -18 22 -42 63 -54 90 -12 28 -34 66 -49
85 -16 19 -38 53 -51 75 -13 22 -41 58 -63 80 -294 298 -374 374 -432 409 -17
10 -47 32 -65 49 -19 16 -58 40 -87 53 -29 13 -67 36 -86 52 -18 16 -65 41
-104 56 -40 15 -80 36 -90 47 -9 10 -59 32 -111 49 -51 16 -106 38 -122 50
-51 36 -93 48 -221 65 -69 9 -159 24 -200 35 -191 49 -463 68 -700 50z"/>
<path d="M7843 5250 c-23 -17 -53 -50 -66 -73 -14 -23 -37 -52 -51 -64 -14
-12 -34 -39 -45 -60 -10 -21 -29 -47 -41 -58 -12 -11 -39 -49 -60 -85 -21 -36
-48 -74 -60 -85 -12 -11 -32 -40 -45 -65 -13 -25 -35 -56 -50 -70 -15 -14 -40
-51 -56 -82 -16 -31 -42 -72 -58 -90 -16 -18 -35 -49 -44 -69 -8 -19 -28 -51
-44 -70 -17 -19 -43 -59 -58 -89 -15 -30 -40 -68 -56 -85 -15 -16 -35 -48 -45
-70 -9 -22 -30 -55 -46 -73 -16 -19 -40 -58 -53 -88 -13 -29 -37 -71 -54 -91
-16 -21 -39 -62 -50 -91 -11 -30 -35 -77 -54 -105 -19 -29 -43 -77 -52 -107
-10 -30 -33 -80 -51 -110 -18 -30 -40 -84 -49 -120 -9 -36 -32 -92 -50 -125
-21 -38 -41 -96 -54 -157 -11 -54 -33 -128 -50 -165 -17 -40 -34 -104 -41
-153 -7 -47 -23 -155 -37 -240 -29 -180 -28 -234 12 -450 28 -149 41 -192 73
-238 11 -15 31 -59 46 -98 15 -40 36 -80 48 -90 11 -11 35 -48 53 -84 18 -36
45 -76 60 -90 15 -14 34 -38 42 -55 30 -60 246 -266 295 -280 12 -4 46 -24 73
-45 28 -21 74 -47 103 -58 29 -11 68 -31 85 -45 56 -42 74 -47 224 -66 82 -11
175 -26 208 -34 111 -29 164 -30 255 -9 90 21 187 37 285 47 87 9 136 24 172
51 18 14 62 38 99 54 37 17 84 44 104 60 21 17 54 37 74 45 20 9 57 34 82 58
85 78 194 190 194 199 0 5 20 30 44 56 24 26 54 67 66 92 13 25 35 59 50 77
16 17 37 55 48 85 11 29 36 79 55 110 20 34 39 83 46 120 7 35 25 110 42 167
39 140 41 288 4 437 -14 56 -34 161 -45 233 -14 92 -29 153 -50 201 -16 37
-37 97 -45 132 -28 116 -37 141 -60 177 -13 20 -33 70 -45 111 -12 41 -39 104
-60 140 -21 36 -45 88 -55 117 -9 28 -29 68 -45 88 -16 20 -39 62 -50 93 -12
32 -32 68 -45 82 -13 14 -37 54 -53 90 -17 36 -40 74 -52 85 -12 11 -35 45
-50 75 -15 30 -42 73 -60 95 -18 22 -42 63 -55 90 -12 28 -32 59 -45 70 -12
11 -34 43 -47 70 -14 28 -40 68 -58 90 -18 22 -42 58 -53 80 -11 22 -30 49
-42 60 -12 11 -39 50 -60 86 -22 36 -46 72 -55 79 -9 8 -25 31 -36 52 -10 20
-39 60 -64 88 -25 28 -45 55 -45 61 0 5 -17 28 -38 52 -21 23 -51 63 -65 89
-44 77 -79 86 -144 38z"/>
</g>
</svg>
