<?xml version="1.0" standalone="no"?>
<!DOCTYPE svg PUBLIC "-//W3C//DTD SVG 20010904//EN"
 "http://www.w3.org/TR/2001/REC-SVG-20010904/DTD/svg10.dtd">
<svg version="1.0" xmlns="http://www.w3.org/2000/svg"
 width="1024.000000pt" height="1024.000000pt" viewBox="0 0 1024.000000 1024.000000"
 preserveAspectRatio="xMidYMid meet">
<metadata>
Created by potrace 1.13, written by Peter Selinger 2001-2015
</metadata>
<g transform="translate(0.000000,1024.000000) scale(0.100000,-0.100000)"
fill="#000000" stroke="none">
<path d="M5000 9379 c-99 -20 -264 -40 -440 -54 -194 -15 -229 -22 -323 -61
-32 -14 -104 -34 -160 -45 -67 -14 -121 -32 -162 -54 -33 -18 -87 -40 -120
-50 -33 -9 -82 -31 -110 -50 -27 -18 -76 -43 -108 -55 -31 -12 -70 -32 -86
-45 -15 -13 -61 -39 -102 -58 -41 -18 -80 -42 -88 -51 -8 -10 -40 -30 -71 -46
-31 -16 -62 -36 -70 -45 -7 -9 -43 -33 -79 -55 -36 -21 -75 -48 -86 -60 -11
-13 -37 -33 -57 -46 -43 -28 -238 -222 -318 -319 -30 -36 -71 -85 -91 -108
-20 -23 -52 -67 -72 -97 -19 -30 -45 -64 -57 -75 -12 -11 -31 -37 -42 -58 -10
-21 -33 -53 -50 -70 -16 -18 -41 -54 -55 -82 -14 -27 -38 -65 -54 -85 -15 -19
-38 -57 -50 -84 -11 -27 -36 -68 -54 -92 -18 -24 -41 -67 -51 -96 -9 -29 -31
-74 -49 -99 -17 -26 -40 -75 -49 -110 -10 -35 -33 -91 -52 -125 -20 -35 -40
-93 -50 -140 -9 -43 -31 -117 -49 -164 -38 -97 -48 -161 -70 -417 -13 -155
-15 -473 -15 -2166 0 -1426 3 -1993 11 -2016 23 -65 -51 -61 1251 -61 669 0
1200 4 1222 10 21 5 48 17 58 28 18 18 19 66 18 1888 0 1197 4 1910 10 1983
14 157 34 238 71 283 16 21 38 57 48 82 26 59 159 207 218 242 27 15 67 42 91
60 32 25 60 35 115 44 40 6 112 22 160 36 48 13 110 24 137 24 27 0 89 -11
137 -24 48 -14 120 -30 160 -36 55 -9 83 -19 115 -44 24 -18 64 -45 91 -60 59
-35 192 -183 218 -242 10 -25 32 -61 48 -82 37 -45 57 -126 71 -283 6 -73 10
-786 10 -1983 -1 -1822 0 -1870 18 -1888 10 -11 37 -23 58 -28 22 -6 553 -10
1222 -10 1302 0 1228 -4 1251 61 8 23 11 590 11 2016 0 1693 -2 2011 -15 2166
-22 256 -32 320 -70 417 -18 47 -40 121 -49 164 -10 47 -30 105 -50 140 -19
34 -42 90 -52 125 -9 35 -32 84 -49 110 -18 25 -40 70 -49 99 -10 29 -33 72
-51 96 -18 24 -43 65 -54 92 -12 27 -35 65 -50 84 -16 20 -40 58 -54 85 -14
28 -39 64 -55 82 -17 17 -40 49 -50 70 -11 21 -30 47 -42 58 -12 11 -38 45
-57 75 -20 30 -52 74 -72 97 -20 23 -61 72 -91 108 -80 97 -275 291 -318 319
-20 13 -46 33 -57 46 -11 12 -50 39 -86 60 -36 22 -72 46 -79 55 -8 9 -39 29
-70 45 -31 16 -63 36 -71 46 -8 9 -47 33 -88 51 -41 19 -87 45 -102 58 -16 13
-55 33 -86 45 -32 12 -80 37 -108 55 -27 19 -77 41 -110 50 -33 10 -87 32
-120 50 -40 22 -95 40 -160 54 -55 11 -134 33 -175 50 -85 34 -154 47 -290 56
-150 9 -286 24 -411 45 -122 21 -214 24 -289 9z m450 -875 c153 -7 221 -20
303 -55 38 -16 114 -38 170 -49 55 -11 114 -29 131 -40 38 -24 95 -51 158 -74
26 -9 63 -30 83 -46 19 -15 58 -36 86 -46 28 -10 68 -33 89 -52 22 -18 59 -42
84 -53 25 -11 66 -38 91 -59 26 -22 51 -40 56 -40 19 0 220 -198 309 -305 30
-36 74 -87 96 -113 23 -26 48 -61 57 -78 9 -17 32 -50 52 -74 20 -24 46 -62
57 -84 12 -23 35 -57 52 -78 17 -20 39 -58 49 -85 10 -27 33 -71 52 -97 19
-27 42 -74 51 -105 9 -31 31 -84 50 -118 20 -35 41 -93 50 -135 8 -40 30 -118
49 -173 23 -69 37 -134 45 -210 8 -77 10 -590 8 -1713 l-3 -1604 -24 -19 c-22
-18 -44 -19 -388 -19 l-365 0 -27 28 c-24 23 -29 38 -35 106 -4 43 -6 749 -6
1569 1 1487 1 1492 -20 1567 -11 41 -31 124 -44 183 -17 77 -34 125 -59 165
-19 32 -42 79 -51 107 -9 27 -29 66 -45 85 -16 20 -43 64 -60 98 -18 35 -38
65 -46 68 -8 3 -25 22 -37 42 -69 114 -292 333 -388 382 -25 13 -60 35 -80 51
-19 15 -60 37 -91 48 -31 12 -66 32 -79 46 -29 31 -91 51 -200 65 -47 6 -137
24 -200 40 -63 16 -144 32 -180 36 -71 7 -114 25 -124 49 -3 9 -6 178 -6 376
0 298 3 365 15 389 20 38 27 40 120 35 44 -3 132 -7 195 -11z"/>
<path d="M1789 1710 c-12 -3 -30 -17 -41 -30 -33 -45 -40 -129 -36 -439 3
-308 8 -344 50 -379 13 -10 251 -13 1217 -13 1325 0 1243 -4 1277 63 14 27 16
77 16 368 0 291 -2 341 -16 368 -34 66 46 62 -1260 65 -652 1 -1195 0 -1207
-3z"/>
<path d="M6079 1709 c-49 -8 -77 -25 -95 -61 -14 -27 -16 -77 -16 -368 0 -291
2 -341 16 -368 34 -67 -48 -63 1277 -63 1106 0 1203 2 1220 17 40 36 44 75 44
414 0 339 -4 378 -44 414 -17 15 -114 17 -1193 19 -646 1 -1190 -1 -1209 -4z"/>
</g>
</svg>
