<?xml version="1.0" standalone="no"?>
<!DOCTYPE svg PUBLIC "-//W3C//DTD SVG 20010904//EN"
 "http://www.w3.org/TR/2001/REC-SVG-20010904/DTD/svg10.dtd">
<svg version="1.0" xmlns="http://www.w3.org/2000/svg"
 width="1024.000000pt" height="1024.000000pt" viewBox="0 0 1024.000000 1024.000000"
 preserveAspectRatio="xMidYMid meet">
<metadata>
Created by potrace 1.13, written by Peter Selinger 2001-2015
</metadata>
<g transform="translate(0.000000,1024.000000) scale(0.100000,-0.100000)"
fill="#000000" stroke="none">
<path d="M7579 9213 c-121 -109 -341 -303 -381 -337 -22 -19 -41 -90 -32 -119
3 -12 27 -45 53 -74 51 -57 113 -136 152 -194 14 -21 42 -56 62 -79 21 -22 37
-44 37 -50 0 -5 20 -32 45 -60 25 -28 54 -70 66 -93 12 -23 35 -57 51 -76 17
-19 38 -53 48 -76 10 -23 32 -58 48 -76 17 -19 42 -62 57 -94 14 -33 37 -71
51 -86 13 -14 34 -52 47 -85 13 -33 38 -79 55 -103 17 -23 40 -71 52 -106 12
-35 29 -74 39 -87 30 -38 48 -80 66 -148 9 -36 30 -86 46 -111 16 -26 39 -87
52 -140 13 -52 38 -121 55 -154 17 -35 37 -98 47 -149 9 -50 32 -130 51 -178
23 -60 40 -129 54 -220 10 -73 30 -171 44 -218 35 -120 44 -185 61 -461 27
-415 14 -1101 -26 -1348 -5 -36 -21 -104 -35 -151 -14 -47 -34 -145 -45 -219
-13 -89 -29 -158 -50 -210 -17 -42 -42 -127 -55 -190 -14 -67 -34 -131 -49
-157 -14 -24 -37 -87 -51 -141 -14 -54 -38 -118 -54 -143 -16 -25 -36 -74 -45
-110 -18 -68 -36 -110 -66 -148 -10 -13 -27 -52 -39 -87 -12 -35 -35 -83 -52
-106 -17 -24 -41 -69 -54 -101 -12 -32 -35 -73 -49 -90 -15 -18 -38 -56 -51
-86 -13 -30 -38 -70 -55 -90 -17 -19 -39 -54 -49 -77 -10 -23 -31 -57 -48 -76
-16 -19 -39 -53 -51 -76 -12 -23 -41 -65 -66 -93 -25 -28 -45 -55 -45 -60 0
-6 -16 -28 -37 -50 -20 -23 -48 -58 -62 -79 -39 -58 -101 -137 -152 -194 -26
-29 -50 -62 -53 -74 -9 -29 10 -100 32 -119 109 -95 307 -270 398 -352 81 -72
122 -102 140 -102 35 0 99 35 121 66 10 14 36 48 58 75 22 28 54 71 72 96 17
25 45 60 61 77 16 17 39 48 51 69 13 20 31 42 42 47 10 6 29 30 40 53 12 23
38 62 59 87 20 25 45 61 55 80 10 19 33 52 51 72 19 21 41 54 49 75 9 20 33
60 54 87 22 28 46 67 54 87 8 20 30 56 50 82 19 25 42 68 51 94 9 26 32 67 51
91 18 24 41 67 51 95 9 29 31 75 49 102 18 28 43 80 55 117 11 36 34 86 50
110 16 23 36 75 46 113 9 39 32 98 50 132 19 33 43 101 55 149 11 48 34 115
51 147 17 34 39 107 53 171 12 61 34 136 47 166 29 64 43 122 59 240 6 47 24
126 40 177 35 114 45 174 59 333 6 69 23 217 38 330 25 193 27 228 27 590 0
362 -2 397 -27 590 -15 113 -32 261 -38 330 -14 159 -24 219 -59 333 -16 51
-34 133 -41 182 -15 117 -25 157 -56 228 -14 32 -36 109 -49 171 -14 66 -36
139 -53 173 -17 32 -40 99 -51 147 -12 48 -36 116 -55 149 -18 34 -41 94 -50
132 -10 39 -29 87 -43 108 -14 20 -39 74 -55 119 -16 46 -40 97 -54 115 -14
18 -36 62 -50 99 -13 36 -38 82 -54 102 -16 21 -38 61 -49 91 -11 30 -34 72
-51 93 -17 21 -40 58 -50 81 -11 24 -34 61 -51 83 -17 21 -40 59 -51 82 -11
24 -35 60 -53 80 -18 21 -40 53 -50 72 -10 19 -35 55 -55 80 -21 25 -47 64
-59 87 -11 23 -30 47 -40 53 -11 5 -29 27 -42 47 -12 21 -35 52 -51 69 -16 17
-44 52 -61 77 -18 25 -50 68 -72 96 -22 27 -48 61 -58 75 -21 31 -86 66 -121
66 -18 0 -63 -34 -157 -117z"/>
<path d="M6435 8185 c-22 -8 -57 -31 -77 -52 -21 -21 -65 -63 -98 -93 -33 -30
-84 -77 -113 -105 -29 -27 -88 -81 -131 -120 -69 -63 -126 -142 -126 -176 0
-14 84 -142 106 -160 9 -7 31 -36 48 -64 18 -27 41 -56 50 -64 10 -8 28 -35
41 -60 13 -25 37 -64 55 -86 18 -22 43 -62 57 -90 14 -27 38 -64 53 -82 16
-17 38 -58 50 -90 12 -32 33 -70 47 -84 13 -15 36 -58 49 -95 14 -38 40 -91
59 -119 19 -27 41 -79 50 -115 9 -36 30 -86 46 -111 18 -29 40 -88 55 -150 14
-57 39 -134 55 -171 22 -50 35 -106 50 -215 11 -81 29 -190 40 -242 27 -134
39 -286 39 -521 0 -235 -12 -387 -39 -521 -11 -52 -29 -161 -40 -242 -15 -109
-28 -165 -50 -215 -16 -37 -41 -114 -55 -171 -15 -62 -37 -121 -55 -150 -16
-25 -37 -75 -46 -111 -9 -36 -31 -87 -50 -115 -19 -27 -45 -81 -59 -119 -13
-37 -36 -80 -49 -95 -14 -14 -35 -52 -47 -84 -12 -32 -34 -73 -50 -90 -15 -18
-39 -54 -53 -82 -14 -27 -39 -68 -57 -90 -18 -22 -42 -61 -55 -86 -13 -25 -31
-52 -41 -60 -9 -8 -32 -37 -50 -64 -17 -28 -39 -57 -48 -64 -22 -18 -106 -146
-106 -160 0 -34 57 -113 126 -176 43 -38 102 -92 131 -120 29 -27 79 -74 110
-103 32 -29 78 -73 103 -97 82 -78 157 -80 198 -6 12 20 34 49 51 64 17 14 38
41 47 59 9 18 32 50 50 70 18 21 44 59 58 85 13 26 36 59 51 73 15 14 36 43
47 65 12 22 34 55 50 73 16 19 39 57 52 86 13 29 37 68 54 87 17 19 38 55 48
80 9 24 30 61 46 81 16 21 41 69 57 107 16 39 40 84 54 100 14 17 35 61 47 98
12 37 35 87 51 109 15 23 38 77 50 120 11 44 35 103 51 133 17 29 43 101 58
160 15 58 39 133 53 167 15 35 35 114 46 186 12 69 34 176 50 239 41 159 51
313 51 779 0 466 -10 620 -51 779 -16 63 -38 170 -50 239 -11 72 -31 151 -46
186 -14 34 -38 109 -53 167 -15 59 -41 131 -58 160 -16 30 -40 89 -51 133 -12
43 -35 97 -50 120 -16 22 -39 72 -51 109 -12 37 -33 81 -47 98 -14 16 -38 61
-54 100 -16 38 -41 86 -57 107 -16 20 -37 57 -46 81 -10 25 -31 61 -48 80 -17
19 -41 58 -54 87 -13 29 -36 67 -52 86 -16 18 -38 51 -50 73 -11 22 -32 51
-47 65 -15 14 -38 47 -51 73 -14 26 -40 64 -58 85 -18 20 -41 52 -50 70 -9 18
-30 45 -47 59 -17 15 -39 44 -51 64 -18 32 -54 60 -76 59 -4 -1 -25 -7 -47
-15z"/>
<path d="M5112 7018 c-23 -24 -67 -66 -99 -95 -152 -137 -282 -251 -320 -281
-92 -72 -106 -137 -44 -205 21 -23 48 -61 60 -84 12 -23 34 -57 50 -75 16 -18
43 -60 60 -93 17 -33 43 -75 56 -93 13 -18 31 -56 41 -85 9 -29 32 -77 50
-107 21 -34 41 -89 54 -144 11 -49 30 -110 41 -135 40 -90 50 -159 56 -386 9
-338 -9 -458 -110 -754 -18 -50 -40 -60 -74 -33 -15 12 -52 38 -81 57 -29 19
-55 42 -58 50 -3 8 -28 28 -55 44 -26 17 -65 46 -86 64 -21 19 -52 43 -70 54
-17 10 -52 36 -77 58 -122 106 -143 123 -176 145 -19 13 -41 32 -47 41 -7 10
-35 31 -63 48 -27 17 -66 46 -87 64 -21 19 -57 46 -81 61 -24 15 -45 33 -48
41 -4 8 -22 24 -42 37 -21 12 -61 42 -89 67 -97 85 -138 118 -198 160 -79 55
-142 104 -185 144 -19 18 -54 45 -77 60 -24 15 -43 32 -43 37 0 5 -24 26 -54
47 -85 60 -184 134 -240 180 -28 23 -75 62 -104 85 -29 24 -73 61 -98 83 -25
22 -65 53 -89 70 -93 65 -179 132 -217 168 -22 20 -44 37 -49 37 -5 0 -33 21
-63 48 -91 79 -148 126 -192 157 -81 58 -160 120 -206 162 -26 24 -51 43 -56
43 -5 0 -28 18 -51 40 -22 22 -49 40 -58 40 -27 0 -120 -104 -153 -171 -17
-35 -39 -73 -51 -85 -11 -12 -33 -54 -49 -93 -16 -39 -41 -87 -56 -106 -14
-19 -37 -69 -50 -111 -13 -43 -35 -94 -48 -114 -25 -38 -48 -109 -61 -185 -4
-22 -20 -71 -36 -110 -41 -94 -46 -123 -69 -367 -25 -269 -25 -487 0 -756 23
-244 28 -273 69 -367 16 -39 32 -88 36 -110 13 -76 36 -147 61 -185 13 -20 35
-71 48 -114 13 -42 36 -92 50 -111 15 -19 40 -67 56 -106 16 -39 38 -81 49
-93 12 -12 35 -51 52 -86 30 -62 125 -170 150 -170 6 0 59 43 118 96 174 157
197 177 262 234 161 143 209 193 209 220 0 43 -37 138 -73 188 -19 26 -42 72
-52 102 -10 30 -33 80 -51 110 -21 34 -43 93 -58 155 -13 55 -36 132 -50 171
-38 106 -49 240 -43 519 6 243 20 348 48 366 40 25 124 -7 196 -74 27 -24 69
-58 96 -76 26 -17 47 -36 47 -41 0 -5 21 -24 47 -42 27 -18 64 -48 84 -68 21
-19 67 -60 104 -90 37 -30 82 -69 99 -85 17 -17 51 -45 76 -62 25 -17 54 -41
65 -53 11 -12 46 -40 78 -62 32 -22 61 -46 63 -53 3 -7 24 -25 46 -40 23 -15
58 -44 78 -64 21 -20 68 -61 105 -91 37 -30 83 -70 103 -88 19 -18 54 -46 76
-62 23 -15 50 -38 61 -50 11 -12 40 -36 65 -53 25 -17 68 -50 95 -74 28 -25
73 -64 100 -88 59 -52 137 -118 230 -195 37 -30 88 -73 114 -95 25 -23 64 -54
86 -70 40 -29 88 -69 180 -150 60 -53 159 -137 238 -202 31 -27 79 -66 105
-88 26 -23 72 -60 102 -83 110 -85 160 -127 175 -148 22 -33 64 -44 109 -29
47 16 73 40 97 88 11 21 35 55 53 75 18 20 41 53 51 72 9 19 30 49 46 65 16
17 43 60 60 95 17 36 42 76 55 91 13 14 35 53 48 86 13 34 36 77 50 96 15 19
38 69 51 110 14 42 38 97 55 124 18 29 36 80 46 128 9 44 31 116 49 160 39 95
49 153 71 425 19 234 15 505 -11 764 -18 187 -25 222 -61 301 -14 33 -35 101
-45 150 -12 55 -31 109 -49 138 -17 27 -41 82 -55 124 -13 41 -36 91 -51 110
-14 19 -37 62 -50 96 -13 33 -35 72 -48 86 -13 15 -38 55 -55 91 -17 35 -44
78 -60 95 -16 16 -37 46 -46 65 -9 19 -30 49 -45 65 -16 17 -41 53 -57 80 -36
61 -83 95 -133 95 -30 0 -44 -8 -78 -42z"/>
</g>
</svg>
