<?xml version="1.0" standalone="no"?>
<!DOCTYPE svg PUBLIC "-//W3C//DTD SVG 20010904//EN"
 "http://www.w3.org/TR/2001/REC-SVG-20010904/DTD/svg10.dtd">
<svg version="1.0" xmlns="http://www.w3.org/2000/svg"
 width="1024.000000pt" height="1024.000000pt" viewBox="0 0 1024.000000 1024.000000"
 preserveAspectRatio="xMidYMid meet">
<metadata>
Created by potrace 1.13, written by Peter Selinger 2001-2015
</metadata>
<g transform="translate(0.000000,1024.000000) scale(0.100000,-0.100000)"
fill="#000000" stroke="none">
<path d="M4950 9375 c-115 -19 -359 -43 -505 -50 -136 -8 -221 -24 -315 -61
-35 -15 -111 -35 -168 -45 -63 -11 -134 -32 -180 -53 -43 -19 -108 -42 -147
-51 -39 -9 -95 -31 -127 -51 -32 -19 -83 -44 -115 -55 -32 -11 -76 -33 -99
-49 -23 -16 -68 -39 -100 -51 -32 -12 -75 -34 -96 -50 -20 -16 -62 -40 -93
-54 -31 -13 -73 -38 -93 -53 -20 -16 -59 -39 -87 -51 -27 -12 -63 -35 -80 -50
-16 -16 -50 -39 -75 -51 -25 -13 -62 -38 -82 -56 -20 -18 -55 -42 -77 -54 -22
-11 -45 -29 -51 -40 -6 -11 -28 -31 -48 -44 -20 -14 -77 -63 -126 -110 l-88
-86 -54 0 c-49 0 -58 4 -90 35 -19 19 -51 43 -72 54 -20 10 -46 28 -56 40 -11
12 -45 36 -75 53 -31 17 -76 49 -100 70 -24 21 -49 38 -56 38 -7 0 -32 17 -56
38 -24 21 -64 50 -89 64 -25 15 -63 43 -85 63 -61 55 -99 59 -129 13 -14 -21
-14 -58 -6 -308 13 -372 26 -600 50 -845 27 -283 38 -451 50 -755 19 -513 23
-543 74 -556 37 -9 297 50 371 85 35 17 107 39 162 50 54 11 127 33 163 50 36
17 109 40 164 51 54 11 133 35 175 54 42 18 117 41 166 51 50 9 124 32 165 50
41 19 119 43 172 53 54 11 126 34 161 50 35 17 104 38 153 47 49 10 124 33
166 52 43 19 124 43 180 54 107 21 148 39 148 65 0 23 -35 87 -62 110 -12 11
-41 31 -63 43 -22 13 -43 29 -48 36 -4 7 -36 29 -70 49 -35 19 -70 42 -77 51
-7 9 -44 34 -81 55 -36 22 -69 46 -72 54 -3 9 -29 27 -56 41 -28 14 -65 38
-83 54 -18 16 -61 45 -96 65 -34 20 -62 41 -62 46 0 6 -24 23 -54 40 -72 41
-88 61 -94 119 -4 46 -3 49 33 77 21 16 57 45 79 65 23 19 61 47 86 61 25 14
54 36 65 48 11 12 45 33 75 47 30 13 71 37 91 53 21 16 60 38 89 49 28 11 75
35 103 54 29 19 75 42 103 51 27 9 74 32 103 50 28 19 82 41 119 50 37 10 99
33 138 52 50 25 105 41 185 55 63 12 134 29 158 40 94 41 154 50 459 66 279
15 327 15 605 0 301 -17 366 -26 463 -65 28 -11 100 -30 159 -41 68 -13 135
-33 179 -54 39 -19 104 -42 144 -52 43 -10 93 -31 120 -50 26 -17 72 -41 102
-52 30 -10 79 -36 109 -56 29 -20 71 -42 92 -48 22 -7 56 -27 77 -45 22 -18
65 -45 98 -59 32 -14 73 -39 89 -54 17 -16 48 -38 70 -49 22 -11 49 -30 60
-42 11 -13 38 -34 60 -48 110 -70 325 -286 433 -435 13 -18 38 -48 56 -67 18
-19 42 -51 54 -70 11 -20 33 -47 47 -60 15 -14 35 -41 45 -61 10 -19 35 -55
56 -80 20 -24 45 -62 54 -85 10 -23 32 -57 48 -75 17 -19 41 -59 55 -89 13
-30 36 -69 51 -87 15 -17 35 -56 45 -86 11 -30 35 -79 54 -108 20 -30 43 -81
52 -114 10 -33 32 -87 50 -120 20 -37 41 -98 54 -157 11 -54 31 -121 44 -150
36 -81 46 -134 67 -373 26 -293 26 -617 0 -910 -21 -239 -31 -292 -67 -373
-13 -29 -33 -96 -44 -150 -13 -59 -34 -120 -54 -157 -18 -33 -40 -87 -50 -120
-9 -33 -32 -84 -52 -114 -19 -29 -43 -78 -54 -108 -10 -30 -30 -69 -45 -86
-15 -18 -38 -57 -51 -87 -14 -30 -38 -70 -55 -89 -16 -18 -38 -52 -48 -75 -9
-23 -34 -61 -54 -85 -21 -25 -46 -61 -56 -80 -10 -20 -30 -47 -45 -61 -14 -13
-36 -40 -47 -60 -12 -19 -36 -51 -54 -70 -18 -19 -43 -49 -56 -67 -108 -149
-323 -365 -433 -435 -22 -14 -49 -35 -60 -48 -11 -12 -38 -31 -60 -42 -22 -11
-53 -33 -70 -49 -16 -15 -57 -40 -89 -54 -33 -14 -76 -41 -98 -59 -21 -18 -55
-38 -77 -45 -21 -6 -63 -28 -92 -48 -30 -20 -79 -46 -109 -56 -30 -11 -76 -35
-102 -52 -27 -19 -77 -40 -120 -50 -40 -10 -105 -33 -144 -52 -44 -21 -111
-41 -179 -54 -59 -11 -131 -30 -159 -41 -97 -39 -162 -48 -463 -65 -275 -14
-329 -14 -606 0 l-304 15 -107 36 c-58 20 -156 46 -217 57 -77 13 -131 30
-179 54 -37 19 -98 42 -134 51 -37 9 -85 30 -108 46 -22 17 -72 41 -109 53
-38 13 -88 38 -112 55 -23 16 -67 39 -96 50 -29 12 -69 34 -90 50 -20 16 -61
40 -91 53 -30 14 -66 37 -80 52 -14 15 -42 36 -63 46 -20 11 -50 33 -65 50
-15 17 -38 37 -52 44 -70 38 -650 657 -650 694 0 5 -20 33 -44 63 -23 29 -53
73 -66 98 -12 25 -35 59 -51 75 -15 17 -37 51 -48 76 -11 25 -34 62 -50 83
-17 21 -40 63 -51 94 -12 31 -37 81 -56 113 -19 31 -42 83 -51 115 -8 32 -30
88 -48 124 -24 46 -40 99 -56 185 -26 144 -51 215 -91 261 -36 40 -62 43 -146
15 -31 -11 -115 -27 -187 -36 -71 -9 -148 -21 -170 -26 -114 -30 -270 -84
-286 -100 -26 -26 -24 -62 10 -149 16 -41 41 -130 55 -198 15 -75 35 -140 50
-166 13 -23 36 -85 51 -137 14 -52 38 -111 51 -131 14 -20 37 -71 50 -113 14
-43 38 -96 54 -119 16 -22 39 -68 51 -101 12 -33 32 -71 45 -85 12 -14 36 -55
53 -93 17 -37 44 -84 60 -105 17 -20 37 -53 45 -73 8 -20 31 -55 51 -79 20
-24 46 -62 57 -84 11 -23 39 -62 62 -88 22 -26 64 -75 91 -108 97 -119 394
-424 545 -560 34 -30 82 -74 106 -97 25 -24 57 -49 72 -57 15 -8 39 -28 54
-45 15 -17 47 -40 70 -52 24 -12 61 -37 84 -55 22 -19 58 -41 80 -50 21 -9 52
-28 69 -42 16 -14 64 -41 105 -59 41 -19 85 -43 96 -54 12 -11 55 -33 96 -48
42 -15 91 -39 109 -53 19 -14 66 -36 104 -48 39 -12 95 -37 125 -56 30 -18 90
-42 132 -53 42 -11 103 -34 135 -50 39 -20 97 -37 173 -50 63 -11 151 -34 195
-50 93 -33 176 -48 330 -56 163 -9 314 -24 457 -46 159 -24 213 -24 391 1 157
21 315 36 482 45 148 8 212 20 303 57 42 16 123 39 181 49 62 11 132 32 171
50 36 17 107 41 159 55 55 14 108 35 128 50 18 14 65 36 105 50 39 13 87 36
106 51 19 14 66 39 104 54 37 16 85 41 106 57 20 16 63 39 94 51 31 13 65 32
75 43 10 11 45 33 78 49 32 16 71 40 85 53 14 13 50 36 80 51 30 15 74 45 97
66 24 22 47 39 53 39 5 0 34 21 64 48 30 26 89 76 131 112 43 36 127 119 188
185 60 66 124 134 141 151 17 17 58 64 91 104 33 40 76 89 96 109 20 20 42 47
49 60 7 13 29 42 49 65 21 23 50 63 65 89 15 26 40 62 55 80 16 18 36 48 46
67 10 19 31 50 47 68 16 19 40 59 54 90 14 32 39 74 55 95 17 21 40 64 51 97
11 33 33 76 49 96 16 20 38 69 50 108 12 39 36 98 54 131 18 33 42 97 53 141
11 45 34 108 50 141 19 36 38 101 50 164 11 57 34 140 50 185 29 77 44 155 57
294 4 36 18 137 33 225 25 150 27 180 27 475 0 295 -2 325 -27 475 -15 88 -29
189 -33 225 -13 139 -28 217 -57 294 -16 45 -39 128 -50 185 -12 63 -31 128
-50 164 -16 33 -39 96 -50 141 -11 44 -35 108 -53 141 -18 33 -42 92 -54 131
-12 39 -34 88 -50 108 -16 20 -38 63 -49 96 -11 33 -34 76 -51 97 -16 21 -41
63 -55 95 -14 31 -38 71 -54 90 -16 18 -37 49 -47 68 -10 19 -30 49 -46 67
-15 18 -40 54 -55 80 -15 26 -44 66 -65 89 -20 23 -42 52 -49 65 -7 13 -29 40
-49 60 -20 20 -63 69 -96 109 -33 40 -74 87 -91 104 -17 17 -81 85 -141 151
-61 66 -145 149 -188 185 -42 36 -101 86 -131 113 -30 26 -59 47 -64 47 -6 0
-29 17 -53 39 -23 21 -67 51 -97 66 -30 15 -66 38 -80 51 -14 13 -53 37 -85
53 -33 16 -68 38 -78 49 -10 11 -44 30 -75 43 -31 12 -74 35 -94 51 -21 16
-69 41 -106 57 -38 15 -85 40 -104 54 -19 15 -67 38 -106 51 -40 14 -87 36
-105 50 -20 15 -73 36 -128 50 -52 14 -123 38 -159 55 -39 18 -109 39 -171 50
-58 10 -139 33 -181 49 -91 37 -155 49 -303 57 -167 9 -325 24 -482 45 -163
23 -252 24 -373 5z"/>
</g>
</svg>
